<?xml version="1.0" encoding="UTF-8"?>
<svg viewBox="0 0 324.5 440.75299" xmlns="http://www.w3.org/2000/svg">
 <path d="m55.279 172.68c5.386 10.243 15.505 10.579 23.672 11.547 0 0-6.9284 1.7321-14.819-1.3472s-8.2756-10.2-8.853-10.2zm59.276-33.487s-0.1367 22.973-5.0038 26.751c-6.5504 5.0851-13.087 16.359-27.906 21.363 2.9874-1.4796 8.4291-5.6784 12.157-8.1788 1.1989-0.80422-3.5143 0.87405-6.4508 1.3533 4.097-1.6019 7.5428-5.5604 5.0715-5.2991-5.2115 1.7472-8.4075 1.811-9.4303 0.38491s0.21227-6.2512-3.4642-2.8868-6.6683 3.9386-10.585 0.96228-10.519-9.1754-11.355-13.279 1.5723-7.1849 0.57736-8.853-4.8533 0.90987-2.6944-1.5396c1.9446-2.2063 5.387-6.351 9.0454-12.317 0 0-1.1877 6.5728-0.19246 9.6228 0.71018 2.1763 3.6566-0.38491 3.6566-0.38491 3.4252 2.5284 2.1076 9.669 5.5812 14.627-1.493-6.4106 0.78782-8.6389 0.96228-12.702l2.6944-3.2717 3.2717 4.4265 4.8114-5.3888 4.0416 7.1208 3.4642-1.3472s-1.4818-8.0773 1.5396-9.0454 7.4082 6.1586 9.4303 10.008c0 0-0.32043-7.7987-0.76982-11.162-0.49417-3.6988 3.5721-5.3488 4.6189-2.3095 0.62209 1.8062 2.7679 3.5322 3.4642 5.1963 0.76536 1.8292 3.4642-3.8491 3.4642-3.8491zm14.627 37.529c0.75011 0.46302 0.8681 3.0363-0.50005 4.7596-1.3992 1.7624-4.3086 2.6711-5.6585 2.7461-3.8157 0.21199-1.746-4.4991-5.0038-3.6566s-5.6309 4.4996-6.351 3.6566 3.6005-3.6412 2.5019-5.0038-3.618-0.58062-5.5812-0.57737-4.0038 0.28024-5.7737 0.57736c-1.573 0.26406-1.1018-2.9277 0.76982-2.5019 2.2656 0.51544 6.8623-1.3121 8.853-4.6189 3.5588-5.9119 5.5812-13.087 6.5435-18.091s7.6982-4.0416 5.5812 3.0793-5.3888 9.2379-3.4642 13.279 4.893 4.3819 8.0831 6.351zm14.049-42.148c0.20963 3.0321-2.2422 6.9111-3.2718 12.702s-0.66566 18.394-1.9246 21.94c-0.10415-1.0726 0.0257-2.3836-1.3472-2.5019s-2.5329 1.9788-4.234 2.5019c3.4951-4.8656 3.8725-6.5886 4.0416-9.4303s0.011-6.1325-1.9246-6.5435-2.2315 3.9692-4.0416 3.6566-1.4544-3.4738-2.117-7.8907 3.6365-14.104 2.117-18.283-3.5104-3.2801-4.0416-4.234c-0.83893-1.5065 0.82094-3.1981 3.2717-3.0793s5.0996 3.6298 5.9661 7.6982c0.84626 3.9733-2.3391 12.931-0.96228 18.476 1.7618-4.0784 3.8533-9.6797 5.0038-12.317s0.0674-6.9595 2.117-7.1209 1.1376 1.3944 1.3472 4.4265zm131.76 8.6695c2.6548 3.4503-7.3348 2.9175-7.0149 7.7018s6.1469 1.0156 7.4504 3.3977 1.7402 6.2424-1.2777 6.8687c-2.6985 0.55998-1.4588 2.5493-0.83655 7.1518s-3.8073-2.4071-5.0825-0.70055c-1.2392 1.6583-1.888 9.7763 0.54614 12.164 2.9053 2.8493 3.6123 5.4977 3.3274 8.7491s-2.0467 4.5894-0.11162 9.9752c1.5948 4.4388-0.80539 5.7396-4.0338 6.6882-1.7797 0.52293-5.9442 1.625-6.3265-0.26966s1.1237-3.7197 3.0454-4.0606 4.43 1.8302 3.0454-2.7916-1.2773-7.823-0.76136-11.42-3.4657-4.5626-3.2992-7.6136-0.22637-9.7809-1.5227-14.72-6.9071-10.224-4.8219-12.689-0.44558-8.5357-0.16671-9.4771 2.8644 0.75242 3.3468 0.51128-3.3482-7.2957-0.64218-8.5453 2.5717 3.5329 5.1266 5.2013 7.3548 0.42864 10.01 3.8789h-2e-5zm-70.117-143.24c-0.33238 5e-3 -0.65471 9e-3 -0.96875 0.0312-10.049 0.71781-6.1059 4.3314-15.438 6.8438s-15.078-2.8827-26.562 3.2188-23.673 12.563-36.594 13.281-20.478 1.7888-27.656 7.5312-11.82 20.089-17.562 28.344-8.9867 15.074-10.781 23.688 1.07 19.051 6.8125 22.281 16.522 9.3172 21.188 12.906 9.3353 6.8125 2.875 6.8125-2.5275 1.4545 0.34375 2.5312 6.8154-4e-3 8.9688-2.875c1.5267-2.0354 1.6926-9.5694 15.56-8.0105 4.3736 0.49166-2.3291-7.5806 0.59604-8.5208 10.049-3.2302 15.08-6.4422 16.875-10.031s-1.9779 7.4295-7.4214 13.553c3.6128-3.0438 7.0751-5.5858 11.734-12.116-1.3304 5.7025-2.1227 10.415-12.376 16.428 4.5396 0.35914 8.1342-2.589 12.001-4.5847 0 0-6.4394 6.4422-7.875 10.031s3.5653 7.9195 5.7188 6.125 5.8093 5.1394 5.0312 7.5312c-2.3786 7.3122-1.395 13.051-1.6399 19.99s-1.7392 11.937-1.5789 16.487c0.19286 5.4743 3.7188 18.122 16.594 27.054-10.516-10.161-13.559-19.8-11.446-21.083 1.215-0.73742 7.6697 5.6506 8.9286 4.125 1.0958-1.328-8.0944-14.201-7.8664-21.33s1.9098-13.822 5.6652-20.744c4.4956-8.286 7.1758-22.175 10.312-33.562s-8.5128-15.56-9.25-22.656c-0.62609-6.026 11.801-6.8355 7.0938-30.688 3.96 3.3803 14.127 7.1817 18.938 11.469 4.952 4.4132 12.221 4.1534 21.969 5.4062s6.8398 11.464 9.6562 15.156 8.476 3.7536 10.366 5.1896c2.8527 2.1672 11.923-0.66779 16.276-4.4246 3.1963-2.7585 5.1487-4.5922 11.825 1.75-1.6077-5.1669-6.4654-11.088-5.0743-9.181 5.646 7.739 13.374 5.1515 18.551 11.356 1.5339 1.8383 8.8524 12.209 8.8524 14.747 4.466 11.016-2.1591 10.692-3.0647 18.281-0.32115 2.6913 3.4094 9.8003 4.4246 6.5011s2.0312-0.51039 2.0312 2.2812 0.27368 8.8722 0.78125 11.156 2.2812-2.0332 2.2812-6.0938 2.285-18.787 2.0312-22.594-0.0171-8.6307-3.0625-12.438 5.9618-6.1562 10.263-10.28c4.0413-3.8743 8.5596-12.97 10.015-27.818 0.94163-9.6093-3.8465-24.243-8.8712-33.933s-16.873-19.018-27.281-20.812-13.263 4.9962-23.312 2.125c-9.7353-2.7815-28.571-10.603-38.875-10.438v5e-5zm-26.812 25.219c-1.2844 16.44 30.312 36.719 30.312 36.719-19.589-6.252-24.426-7.1892-30.031-15.219-4.1459-5.9392-9.7401 4.2544-11.312-5.0625-1.5559-9.2192 2.0407-14.383 11.031-16.438zm-41.25 13.031c0.74644-0.0659 1.4036 0.15552 1.9375 0.84375 2.1357 2.7529-2.7894 6.184-7.4375 5.6562s-8.24-0.85375-13.625-0.78125-7.7816 0.20843-15.656 1.5312c2.914-4.3284 13.022-8.1342 17.219-6.6562 4.2834 1.5084 6.3096 2.283 9.75 2.3125 2.5803 0.0221 5.5732-2.7085 7.8125-2.9062zm-19.938 27.438c0.35769 6e-3 0.71821 0.0489 1.0938 0.125 3.0043 0.60866 7.1875 2.8125 7.1875 2.8125l10 2.0625c-0.47538 3.3276-13.872 3.9909-14.375 4.875s11.312 4.875 11.312 4.875c-4.0583 1.6233-20.747-0.3897-18.25-4.375s-3.0463 1.2725-3.5938 2.5938c-0.50226 1.2121-3.3736-0.99883-3.0938-2.0625s2.1593-4.0261 0.28125-5.9062-11.062 0-11.062 0 7.2743-4.702 11.812-4.125c3.949 0.50208 6.1837-0.91677 8.6875-0.875zm-31.781 18.688s34.639 0.32625 37.344 5.0312 12.138 1.5956 11.469 6.0938c-0.87436 5.8763-4.2728 2.8914-10.031 3.5938-4.3526 0.53088-3.5938-3.9375-3.5938-3.9375-0.50315-3.2705-9.1233 0.50621-9.6875-2.1562-0.40679-1.9195 1.0625-3.5938 1.0625-3.5938-4.494-2.2976-15.529-3.6678-26.562-5.0312zm81.623 169.83s-24.372-15.782-28.17-20.557c-2.7186-3.4177-4.8219-10.659-4.8219-10.659 9.3653 12.581 18.519 16.986 32.992 31.216zm-23.591-61.669c-5.5833 3.0454-10.995 7.881-14.219 8.625-3.2992 0.76135-8.6298 1.0085-10.406 2.5312s-0.75854 5.0786-2.2812 6.0938-2.7888-1.0133-2.2812-4.3125 3.0426-4.5682 2.2812-8.375-5.5909-1.0104-7.875 1.7812-1.6101 5.6431-4.0625 6.3438c-1.7765 0.50756-3.8135-4.304-5.8438-2.7812s-1.7717 4.0625 1.7812 4.0625 11.923 8.6118 14.969 13.688 4.3125 3.8143 4.3125-0.5 0.78125-9.9062 0.78125-9.9062 5.2368 14.986 11.156 22.094c4.5969 5.52 20.52 18.042 25.625 21.312 8.6295 5.5288 24.707 18.367 35.281 24.094-14.283-10.541-21.563-23.367-22.594-25.875-1.6422-3.9976 1.7793-2.0332-2.2812-6.0938s-10.649-16.991-11.156-21.812-5.8447-8.9043-7.875-4.8438-6.8447 4.0615-8.875 2.0312-2.0426-13.451-1.2812-16.75 0.27563-7.3457 4.8438-11.406zm-16.562 12.562c0.65593-0.0731 1.2978 0.0961 1.5938 0.625 1.0948 1.9565 1.2081 7.4794 0.25 8.375-1.1477 1.0729-2.9538-4.0804-3.8125-7.0938-0.27684-0.97144 0.87553-1.7844 1.9688-1.9062zm-54-8.5027c-0.51833 6.5604-12.229 14.467-13.869 21.413-1.5516 6.5721-1.3847 15.663 10.062 21.984 0 0-16.905-8.1304-18.273-22.079-1.2689-12.943 10.466-19.396 16.75-23.856 1.7943-1.2735 5.6135-1.0565 5.3295 2.5379zm9.6438 39.337c-9.3351 0.21716-14.766-6.9059-12.943-12.435 2.4048-7.2948 12.435-20.303 23.602-22.841 5.0777-1.154 2.0303-10.659-3.8068-6.8522s-20.389 13.207-24.871 21.826c-3.2992 6.3446-3.178 14.342 1.0151 18.526 3.7035 3.6956 17.257 2.0303 17.004 1.7765zm24.7-19.865c-2.422 11.264-11.755 12.063-18.188 17.406-7.6034 6.3162-4.6238 15.661-10.781 19.469-11.927 7.3751-14.694 11.505-20.344 20.438-2.3179 3.6644-9.0604 4.6446-10.75 8.5938-3.253 7.6033-15.915 18.923-26.719 21.5-11.849 2.8257-18.782 2.9978-20.125 8.9062v128.38h179.72c-1.5445-4.7675-4.1686-11.96-6.8125-14.844-4.1001-4.4728-7.0938-7.8062-7.0938-11.906s2.6096-5.5915 5.2188-5.2188 7.0806 0.36142 10.062-1.875 6.3419-5.2097 11.188-3.7188 7.0919 2.6092 11.938 0c0 0-7.5312 25.543-11.25 37.562h131.53l-23.062-26.969s-19.284-21.266-24.562-41c-5.5571-20.776-15.306-36.639-29.25-60.406-2.6302-4.483-9.3276-8.9428-13.625-12.875-3.3296-3.0466-4.5022-6.0646-4.2188-7.5 0.33847-1.7139 2.7711-2.623 6.125-2.625 1.5493-8.1e-4 1.2544-2.5049 2.4688-2.8125 2.5048-0.63457 4.2372-3.5946 5.7812-6.8438-3.9005 4.4996-8.3524 6.668-9.7812 5.2188-1.8069-1.8327-16.19 5.6814-19.438 5.5312-10.003-0.46264-18.345-3.9594-34.062-16.688 10.551 12.439 23.864 17.08 31.906 19.594-8.9808-0.73656-17.361-4.8241-24.719-9.2812 5.8709 5.951 10.062 7.5506 11.969 8.5 3.0505 1.5193 1.1673 4.448-1.5 2.7812-2.9911-1.8691-5.2028-3.2998-8.6562-5.2188-9.1886-5.1058-18.974-16.82-27.125-23.219 9.4634 11.386 14.811 18.765 28.781 27.719-6.4715-1.0151-9.073-6.1756-13.156-7.8636-5.0319-2.0802-5.7081-6.5808-7.1306-7.3919-2.4771-1.4125-5.3268-0.67162-6.213-2.4319-1.3792-2.7395-4.8115-7.5151-6.4062-10.125s-14.281-13.562-14.281-13.562c-13.2-11.327-27.991-20.262-37.438-37.219zm124.54 29.918c-3.3139 1.9171-3.303 5.7368-6.9537 5.7368s-13.559 0.39656-16.515-2.0861c-4.3461-3.6507-6.2583 0-3.303 2.26s10.952 6.4322 14.255 8.1706c2.4324 1.2802 8.6921 0.17384 11.126 0.86921 3.0822 0.88061 0.34769 5.563 1.0431 8.3444s5.0414 5.3891 7.3014 3.303 1.2169-4.6938 3.1292-5.2153 3.6507 0.17385 4.8676-2.4338 2.7815-9.909 0.34768-12.864-7.3014-6.4322-9.5613-6.606-3.5249-0.75806-5.7368 0.52153zm20.556-16.873c1.6694 8.9533-0.52282 16.278-2.9502 21.02-0.39559-7.0528-0.95221-10.38-4.0565-10.695-2.1427-0.21682-2.2017 1.1606-3.319 2.9502-0.69346 1.1108-6.2539 0.0952-6.1463-1.598 0.0932-1.4654-0.38575-3.3319-1.598-3.9336-5.0941-2.5282-12.949-0.46668-14.136-1.8439-1.8371-2.1309-4.5435-1.0804-5.4087-2.7044-0.99704-1.8715 0.0919-2.2071 1.598-2.5814 1.9658-0.48863 5.3339 0.89566 7.7443 1e-5 7.9632-2.959 12.448-4.4068 14.751-4.0565 3.2612 0.49602 4.1073 3.0085 6.3921 3.9336 1.8574 0.75203 4.9613 0.31118 7.1297-0.49171zm4.4082-25.221c-6.6272-1.509-16.09-6.2416-18.413-1.8956-2.3156 4.3322-5.777 2.208-5.8124 5.8029-0.0543 5.5112 7.6556 2.9968 10.599 6.0245 2.2253 2.289-1.0083 8.2643 2.1083 10.367 1.7617 1.1884 5.0405-0.74408 7.35 0.80073 3.5919 2.4026 3.6263 7.9636 4.9492 11.982 1.5682-3.97 1.3876-9.1777 1.5629-13.806 0.0888-2.3443-1.6232-3.8916-0.26049-5.8012 1.7391-2.4372 6.4905-2.7614 10.136-3.8367-3.7104-3.6427-7.8197-0.99743-9.2171-1.7811-1.2421-0.69655-1.0387-1.3206-2.2353-2.0928-2.5482-1.6445-5.221-1.7152-9.1029-2.6382 4.4549-0.463 7.1215-0.15887 8.7474-0.69165 0.94078-0.30827 0.5534-2.2144-0.41189-2.4342zm-45.727-67.98c-1.6166 0-3.0926 0.60208-4.2188 1.5938-4.2179 0.62003-8.1995 2.0443-10.062 3.375 3.0288-0.4046 5.7773-0.61422 8.2812-0.78125-0.24666 0.6753-0.375 1.3955-0.375 2.1562 0 3.5095 2.8655 6.375 6.375 6.375 3.4991 0 6.327-2.8485 6.3438-6.3438 1.6608-0.0252 3.2463 0.55063 4.7812 0.8125 0 0-2.5366-3.0334-6.125-4.75-1.1601-1.4826-2.9669-2.4375-5-2.4375zm3.9375 3.6875c0.61035 0 1.125 0.75162 1.125 1.6875s-0.51465 1.6875-1.125 1.6875-1.0938-0.75162-1.0938-1.6875 0.4834-1.6875 1.0938-1.6875zm-1.9375 3.875c0.76294 0 1.4062 0.95515 1.4062 2.125s-0.64331 2.0938-1.4062 2.0938-1.375-0.9239-1.375-2.0938 0.61206-2.125 1.375-2.125zm-7.2633 18.044c2.2522 0.17437 5.6238 3.0993 8.2886 2.5787s5.7734-3.2507 2.7629-4.6048-8.1135 0.0991-8.8412-1.6577 4.6415-5.5251 7.9202-5.8941 5.9591 0.24045 7.5518 1.4735c1.9611-1.5298-4.4145-3.7083-2.9471-5.5257s6.2493 2.1735 6.9992 0.1842-7.7901-2.599-4.4206-3.6838 4.4574 0.45593 7.2542 2.2072c2.5647 1.606 5.8117 2.1734 6.0075 6.2655s-4.0094 7.2482-6.1245 10.35c-2.5804 3.7844-4.0174 6.5156-6.8067 6.2349-2.0715-0.20846-2.0674 3.8473-4.0143 3.8601s-3.3469-4.5994-7.3676-3.1312-9.9374 1.7268-11.051-0.18419 4.6827-1.0763 4.9732-3.3154-5.0254-2.3208-4.6048-4.0522 2.1684-1.2795 4.4206-1.1051zm-23.761-25.05c3.6277 0.41082 4.7378 2.5297 5.3415 4.0522 0.6319 1.5935 2.5733 3.0535 3.868 2.7629s1.8849-4.8716 3.3154-5.7099c1.2911-0.75667 3.4127 0.63628 5.7099 0s4.8404-3.8513 7.5518-3.868 5.4075 0.45036 6.2625 2.2103c0.92669 1.9075 6.7485 1.0732 7.5518-2.947s-2.6488-4.9051-5.5257-4.9732-3.1906 1.4742-4.9013 0.96875c-3.9214-1.1586-5.4403 2.4901-7.8078 3.2676s-5.083-0.24741-7.1834 0.36839-2.7888 2.265-5.1573 2.947-12.653 0.51013-9.0254 0.92095zm14.944-15.343s11.094-4.0403 15.616-2.5748 6.308-1.7793 8.1466 0.0518c2.1201 2.1116 5.4901 4.1373 10.038 2.759s12.603 2.6972 12.251 10.595c1.674-5.5484-1.3884-9.7116-4.2844-12.907 3.3665-0.24809 5.9052 4.7203 5.7828 7.9931 3.0088 0.14161 6.0613-5.4674 8.1754-9.4398 1.5615 6.3423-7.4865 10.749-5.8615 12.59s2.9565-1.7148 5.8615-5.0461c0.14213 4.4048-1.9506 8.7534-3.9697 11.197s-4.0303 1.952-4.7045 4.4954c-0.73915 2.7882-0.27946 6.9597-1.0514 9.9885s-6.0409 1.6052-5.52-2.3657c0.52647-4.0132-0.12071-10.098-1.3143-12.091s-4.8309-2.6708-6.3085-3.9428-0.0587-3.3252-1.5771-4.4686-4.4222 1.3383-7.0971 0-2.7372-3.7735-7.36-5.7828-16.823-1.0514-16.823-1.0514v1e-5z"/>
</svg>
