<svg id="visual" viewBox="0 0 900 600" width="900" height="600" xmlns="http://www.w3.org/2000/svg" xmlns:xlink="http://www.w3.org/1999/xlink" version="1.1"><rect x="0" y="0" width="900" height="600" fill="#a61f57"></rect><path d="M0 181L30 173.7C60 166.3 120 151.7 180 148.2C240 144.7 300 152.3 360 154.7C420 157 480 154 540 150.7C600 147.3 660 143.7 720 148.3C780 153 840 166 870 172.5L900 179L900 0L870 0C840 0 780 0 720 0C660 0 600 0 540 0C480 0 420 0 360 0C300 0 240 0 180 0C120 0 60 0 30 0L0 0Z" fill="#c62368"></path><path d="M0 117L30 117.5C60 118 120 119 180 123.3C240 127.7 300 135.3 360 137.5C420 139.7 480 136.3 540 133.3C600 130.3 660 127.7 720 127.8C780 128 840 131 870 132.5L900 134L900 0L870 0C840 0 780 0 720 0C660 0 600 0 540 0C480 0 420 0 360 0C300 0 240 0 180 0C120 0 60 0 30 0L0 0Z" fill="#e54659"></path><path d="M0 85L30 89.5C60 94 120 103 180 107.7C240 112.3 300 112.7 360 111.8C420 111 480 109 540 107.3C600 105.7 660 104.3 720 103.3C780 102.3 840 101.7 870 101.3L900 101L900 0L870 0C840 0 780 0 720 0C660 0 600 0 540 0C480 0 420 0 360 0C300 0 240 0 180 0C120 0 60 0 30 0L0 0Z" fill="#f96e4a"></path><path d="M0 62L30 61.8C60 61.7 120 61.3 180 63.2C240 65 300 69 360 72.3C420 75.7 480 78.3 540 76.8C600 75.3 660 69.7 720 69.2C780 68.7 840 73.3 870 75.7L900 78L900 0L870 0C840 0 780 0 720 0C660 0 600 0 540 0C480 0 420 0 360 0C300 0 240 0 180 0C120 0 60 0 30 0L0 0Z" fill="#ff983d"></path><path d="M0 29L30 31C60 33 120 37 180 36.7C240 36.3 300 31.7 360 31.3C420 31 480 35 540 37.8C600 40.7 660 42.3 720 43.2C780 44 840 44 870 44L900 44L900 0L870 0C840 0 780 0 720 0C660 0 600 0 540 0C480 0 420 0 360 0C300 0 240 0 180 0C120 0 60 0 30 0L0 0Z" fill="#ffc23c"></path></svg>