<?xml version='1.0' encoding='utf-8'?>
<svg xmlns="http://www.w3.org/2000/svg" version="1.1" width="600px" height="976px" viewBox="0 0 600 976"> <g id="layer1"> <g style="fill:rgb(0,0,0); fill-opacity:1.0; stroke-linejoin: miter"> <path d="M303.68872,496.54266C303.23596,496.67584,302.55682,497.0354,302.17065,497.32837C301.77112,497.62134,301.18518,497.95425,300.8523,498.0741C298.1623,499.0196,297.9359,499.15274,296.80396,500.4578C296.3512,500.97714,295.68536,501.64297,295.3125,501.94928C294.69995,502.45532,293.74112,503.81363,293.30167,504.81238C293.20844,505.02545,292.95544,505.41162,292.74237,505.67798C292.26294,506.27722,291.677,507.96844,291.70367,508.71417C291.70367,509.00714,291.6637,509.87274,291.61044,510.6451C291.54385,511.5107,291.5572,512.72253,291.6637,513.8411C292.07654,518.6218,292.00995,518.31555,293.0753,520.4063C293.8077,521.8445,293.96753,522.3372,294.32706,524.388C294.63336,526.1725,294.65997,526.9315,294.4336,527.1179C294.3404,527.1979,293.82104,527.3843,293.27502,527.54407C292.3695,527.8237,292.18304,527.83704,290.97125,527.70386C288.61417,527.45087,286.32367,527.3843,285.01865,527.54407C282.88794,527.8104,282.70154,527.9968,282.16885,530.44714C281.80933,532.0718,281.74274,532.7643,281.82263,533.8429C281.84924,534.18915,281.30328,537.78467,281.21005,537.94446C281.1701,537.99774,281.05023,538.92993,280.93042,540.0219C280.74396,541.71313,280.5442,542.68524,279.94495,544.8026C279.73187,545.54834,279.30576,547.33276,279.07935,548.33154C278.95953,548.87756,278.81305,549.54333,278.74646,549.8097C278.56,550.5022,278.57333,550.79517,278.9462,552.68616C279.59872,555.98865,279.69196,556.4015,280.2246,557.9196C280.51758,558.75854,281.0902,560.7428,281.4897,562.31415C282.2088,565.15063,282.70154,566.5622,283.68695,568.63965C283.9666,569.2389,284.23297,569.89136,284.28622,570.1045C284.33948,570.3308,284.52594,570.67706,284.69904,570.87683C284.8855,571.1165,285.0053,571.43616,285.0053,571.70245C285.0053,572.0221,285.12518,572.30176,285.40485,572.60803C285.9375,573.2206,292.4494,586.4974,292.8622,587.81573C292.95544,588.1087,293.2351,588.68134,293.4748,589.0941C293.72778,589.50696,293.92755,589.973,293.92755,590.1195C293.92755,590.27936,293.4615,591.05176,292.90216,591.8374C291.8235,593.34216,291.27753,594.4608,291.26422,595.13995C291.26422,595.93896,292.07654,598.5357,292.82227,600.05383C293.3416,601.13245,293.3816,601.89154,293.04865,603.78253C292.94214,604.43506,292.87555,605.0476,292.91547,605.14087C292.98206,605.30066,296.69745,605.3273,316.35297,605.3273C330.69513,605.3273,339.75055,605.274,339.8038,605.2074C339.84375,605.14087,339.76385,604.36847,339.61737,603.50287C339.4842,602.63727,339.2578,601.239,339.13797,600.4C339.01813,599.5611,338.69852,597.84326,338.4588,596.6048C337.88617,593.7417,337.53995,591.944,337.3402,590.67883C337.2603,590.1329,337.1005,589.2007,337.00726,588.61475C336.90076,588.0288,336.72763,586.9235,336.6078,586.1511C336.50125,585.3788,336.35477,584.3933,336.27484,583.95386C336.19495,583.5144,336.0751,582.5823,336.00854,581.8898C335.88867,580.65137,335.78214,579.93225,335.40927,577.8948C335.31604,577.34875,335.15625,576.44324,335.07635,575.8972C334.98315,575.35126,334.84998,574.6588,334.7834,574.36584C334.7168,574.0729,334.61026,573.5668,334.557,573.2339C334.49042,572.901,334.25073,571.9155,334.02432,571.0366C333.7846,570.1577,333.50497,569.1323,333.41174,568.77277C333.31854,568.3999,332.98563,567.2946,332.67932,566.3092C332.37305,565.3237,332.09338,564.4049,332.05347,564.2717C332.00018,564.08527,332.3331,563.6858,333.38513,562.7003C334.94318,561.2355,335.92862,559.8905,336.59448,558.34576C336.84747,557.78644,337.36682,556.65454,337.77966,555.8555C338.57867,554.2442,338.9915,553.04565,339.13797,551.90045C339.2578,550.98157,338.9249,551.12805,343.66565,549.8497C345.50336,549.35693,347.62073,548.6911,348.39313,548.35815C349.16547,548.0386,350.48383,547.5059,351.3228,547.173C352.16174,546.8534,353.21378,546.3873,353.65323,546.1476C354.59872,545.6416,356.47638,544.9624,357.76813,544.66943C358.8601,544.4164,359.5126,544.0968,360.49805,543.3511C361.61664,542.4988,362.53552,541.793,363.3212,541.1804C363.8006,540.8209,364.6662,540.3815,365.90466,539.90204C366.94336,539.50256,368.0753,539.03644,368.43484,538.87665C368.8077,538.71686,369.60672,538.3573,370.2326,538.07764C370.8585,537.798,371.51102,537.5317,371.69745,537.4784C372.5364,537.22534,374.7603,536.2799,376.95758,535.21454C378.27594,534.5753,379.80737,533.8429,380.35333,533.5899C380.89932,533.3369,381.4453,533.0306,381.5785,532.9241C381.81818,532.711,381.80487,532.6444,380.95258,530.82C380.0071,528.7959,379.91388,528.52954,379.7807,527.6373L379.63422,526.71844L380.22015,526.1858C380.9659,525.5466,381.89807,525.0938,383.0966,524.81415C385.4803,524.2549,386.94513,523.61566,387.9572,522.67017C388.72958,521.93774,389.58185,521.6581,391.13992,521.61816C392.7379,521.5649,393.36383,521.4717,393.92313,521.16534C394.18945,521.0322,394.6289,520.8191,394.89526,520.7126C395.45453,520.4995,395.61435,520.11334,395.4945,519.3676C395.44122,519.02136,395.5078,518.7817,395.8141,518.31555C396.04047,517.9427,396.25354,517.3701,396.33344,516.864C396.5199,515.69214,396.5066,515.58563,396.1337,515.41254C395.86737,515.29266,395.13495,514.1874,395.13495,513.9077C395.13495,513.68134,396.38672,513.3085,398.3709,512.90894C400.1687,512.56274,400.88776,511.9768,400.47498,511.2044C400.2752,510.83154,400.2885,510.37878,400.5016,510.37878C400.58148,510.37878,401.4737,510.28555,402.45917,510.17902C407.6394,509.6064,413.41888,509.00714,417.64026,508.58102C419.50464,508.3946,421.58203,508.18152,422.23456,508.10162C422.9004,508.03503,424.03235,507.9152,424.76477,507.8486C425.98987,507.72876,431.56958,507.14282,432.95453,506.983C433.28748,506.95636,434.48596,506.8232,435.61792,506.71667C436.74982,506.59683,438.48102,506.4104,439.46643,506.30386C440.85138,506.14404,441.34412,506.14404,441.71698,506.26392C442.00995,506.35712,442.56927,506.38376,443.26172,506.33047C444.40698,506.25058,446.31128,506.39706,447.34998,506.6634C447.88263,506.80988,448.0291,506.79657,448.48187,506.5702C449.40076,506.11743,450.0,504.49277,450.0,502.41534C450.0,501.37665,449.94672,501.0171,449.64044,500.28467C449.0146,498.68668,448.41528,497.95425,447.77612,497.96756C447.56305,497.96756,447.1103,497.98087,446.73743,497.9942C446.37787,498.0075,445.85852,498.12735,445.57886,498.27383C444.96625,498.58014,443.26172,498.92636,442.32953,498.92636C441.95667,498.92636,441.4107,499.00626,441.13104,499.0995C440.83807,499.20602,440.15894,499.32587,439.6129,499.3658C438.5343,499.45905,432.2088,500.0583,426.5625,500.59097C424.6183,500.7774,422.38104,500.99048,421.58203,501.05704C420.79633,501.12363,419.55786,501.24347,418.8521,501.31006C418.1463,501.37665,416.8546,501.50983,415.9757,501.58972C415.0968,501.66962,413.84497,501.8028,413.17914,501.8694C412.5266,501.94928,411.32813,502.05582,410.5158,502.12238C409.7168,502.18896,408.09216,502.33545,406.9203,502.45532C405.7484,502.57516,404.1637,502.72165,403.39136,502.78824C402.61896,502.8548,401.1541,503.00128,400.12872,503.12115C399.10333,503.2277,397.5719,503.37418,396.73297,503.45407C395.16156,503.5739,393.88318,503.69376,390.4075,504.0533C387.45117,504.34628,384.33505,504.6526,382.68378,504.78574C381.88477,504.86563,380.68628,504.97217,380.02042,505.05206C379.36792,505.11865,377.7699,505.26514,376.4915,505.385C375.21307,505.49152,373.68164,505.638,373.0957,505.71793C372.50977,505.7845,371.64417,505.87772,371.1648,505.91766C370.2992,505.99756,368.15518,506.19733,364.14685,506.5835C362.98828,506.70337,361.4169,506.84985,360.64453,506.9164C359.87216,506.983,358.35406,507.14282,357.24878,507.26266C356.1568,507.3825,355.01154,507.4624,354.71857,507.4491C352.33487,507.34256,351.77557,507.50235,351.34943,508.4212C351.10974,508.92725,350.97656,509.06042,350.56375,509.16696C350.2841,509.24686,349.96448,509.31345,349.84464,509.31345C349.7248,509.31345,349.36523,509.4333,349.04565,509.56647C348.3798,509.85944,346.03604,510.37878,345.3702,510.37878C345.1305,510.37878,344.9041,510.2989,344.8775,510.20566C344.51794,508.86066,344.31818,508.76746,341.54828,508.68756C339.4842,508.60767,339.3377,508.62097,338.91156,508.8873L338.4588,509.16696L337.6598,508.78076C337.23367,508.55438,336.68768,508.2614,336.448,508.10162C336.11505,507.88855,335.9153,507.8486,335.5158,507.9285C335.08966,508.0084,334.7301,508.30136,333.30524,509.7662C332.35974,510.725,331.41425,511.83032,331.18787,512.2165C330.9615,512.60266,330.65518,513.0022,330.49536,513.1087C330.2024,513.28186,328.73755,513.5748,328.08505,513.5748C327.85864,513.5748,327.53906,513.7346,327.21948,514.0276C326.74005,514.45374,326.67346,514.48035,325.8212,514.4404C325.3285,514.41376,324.8624,514.33386,324.78247,514.25397C324.70258,514.1741,324.43628,514.1075,324.19653,514.1075C323.87695,514.1075,323.69052,514.2007,323.4641,514.50696C322.9581,515.19946,322.62518,514.9597,323.01135,514.16077C323.25107,513.68134,323.13123,512.60266,322.5852,510.3122C322.35883,509.4333,322.14575,508.4745,322.09253,508.18152C322.03925,507.88855,321.75958,507.14282,321.4533,506.5169C320.90732,505.385,320.90732,505.385,320.94727,504.01337C320.9872,502.32214,320.78748,501.57642,319.9485,500.32462C319.17615,499.15274,318.37714,498.31378,317.7246,497.98087C317.07208,497.64795,315.46075,497.32837,314.39542,497.32837C313.86273,497.32837,313.0371,497.16855,312.10492,496.90222C310.46698,496.43613,309.81445,496.38287,308.62927,496.6492C307.88354,496.82233,307.72372,496.82233,306.6051,496.55597C305.14026,496.19644,304.7541,496.19644,303.68872,496.54266 Z M382.12445,512.4562C382.32422,512.65594,381.09906,513.961,379.96716,514.7866C379.64755,515.013,378.98172,515.6123,378.489,516.105C377.47693,517.11707,376.345,518.0093,375.35956,518.5686C374.78693,518.9148,374.5872,518.9548,373.77484,518.92816C372.9359,518.9015,372.77612,518.94147,371.9771,519.3942C371.49768,519.6739,370.92508,519.99347,370.69867,520.10004C369.84644,520.5661,368.54138,521.3385,367.90216,521.7513C367.3562,522.11084,364.4265,523.4292,364.17346,523.4292C364.13354,523.4292,363.60086,523.6556,362.98828,523.94855C361.5634,524.6144,361.31036,524.88074,361.31036,525.73303L361.31036,526.3722L360.20508,526.8916C358.4872,527.70386,356.59625,528.47626,354.78516,529.1022C352.9208,529.768,351.3228,530.48706,350.72354,530.9399C350.2042,531.33936,348.7793,532.0851,348.5396,532.0851C348.00693,532.0851,346.34235,532.711,345.5167,533.23035C344.984,533.5499,344.53125,533.8163,344.47797,533.8163C344.31818,533.8163,344.39807,533.13715,344.66443,532.19165C344.8109,531.65894,344.93076,531.15295,344.93076,531.0597C344.93076,530.8467,344.0385,529.9944,343.1463,529.35516C342.7335,529.0622,341.788,528.35645,341.04227,527.7838C340.2832,527.2245,339.27112,526.47876,338.7784,526.1458C338.27237,525.8129,337.87286,525.4933,337.87286,525.44006C337.87286,525.3735,338.24573,524.88074,338.68518,524.3481C339.13797,523.8154,339.7239,522.92316,339.97693,522.3772C340.22992,521.8312,340.69604,521.11206,341.00232,520.76587C341.3086,520.4329,341.6282,520.03345,341.72144,519.86035C341.90784,519.5141,342.21414,519.4874,342.53375,519.7671C342.91992,520.11334,343.6923,520.17993,344.0119,519.88696C344.23828,519.6739,344.27823,519.5407,344.19833,519.10126C344.14508,518.8083,344.0918,518.20905,344.0652,517.7696C344.05185,517.33014,343.9986,516.8241,343.9453,516.6377C343.86542,516.35803,343.9453,516.22485,344.46466,515.7987C345.024,515.31934,345.22372,515.2527,346.76846,514.9464C347.8338,514.7334,349.08557,514.6002,350.17755,514.56024L351.89542,514.50696L352.4947,515.053L353.08063,515.6123L353.95953,515.51904C354.4389,515.4658,355.09143,515.30597,355.41104,515.1595C355.78394,514.9864,356.50302,514.8532,357.39526,514.7733C358.1676,514.7067,358.99326,514.6135,359.21964,514.57355C359.45935,514.5336,360.3116,514.4404,361.11063,514.3738C361.92294,514.30725,363.41443,514.1741,364.43982,514.0542C365.4652,513.9477,367.5293,513.7346,369.0341,513.5748C370.53888,513.42834,372.33667,513.2552,373.0291,513.1753C373.7216,513.1087,375.0133,512.9889,375.8922,512.8956C376.77112,512.81573,378.15607,512.66925,378.95508,512.57605C380.60635,512.38965,381.9913,512.33636,382.12445,512.4562 Z M328.0318,518.28894C328.2182,518.38214,328.5245,518.502,328.72424,518.5553C329.20367,518.6751,329.19034,519.02136,328.69763,520.2598C328.24487,521.4317,328.01846,522.4038,328.01846,523.336C328.00513,524.64105,327.83203,525.1071,327.12622,525.8662C326.47372,526.55865,326.4604,526.58527,326.3672,527.624C326.3139,528.20996,326.1541,529.6215,326.00763,530.7534C325.86115,531.8854,325.70135,533.23035,325.6747,533.7497C325.56818,535.32104,325.58148,535.2811,324.76917,535.2811C324.383,535.2811,323.6772,535.16125,323.22443,535.0148C322.77167,534.8683,322.27893,534.7485,322.14575,534.7485C321.73297,534.7485,320.53442,534.2158,320.1083,533.8429C319.88193,533.6432,319.44247,533.3635,319.12286,533.23035C318.48364,532.9374,318.40375,532.6577,318.93643,532.5512C320.46786,532.23157,321.09375,531.8321,321.44,530.9399C321.65308,530.38055,321.65308,530.021,321.41333,528.8225C321.3601,528.5029,321.44,528.2898,321.81287,527.75714C322.492,526.82495,322.5719,526.59863,322.4121,526.0393C322.29224,525.62646,322.3322,525.4667,322.74503,524.65436C323.1978,523.7488,323.21112,523.70886,323.13123,522.5503C323.038,521.15204,323.13123,520.97894,324.2898,520.4063C324.76917,520.1533,325.15536,519.8337,325.4217,519.4475C325.64807,519.1279,325.91443,518.8216,326.02094,518.7683C326.74005,518.4088,327.43253,518.11584,327.55237,518.11584C327.63226,518.10254,327.84534,518.1824,328.0318,518.28894 Z"/> </g> </g> </svg>