<?xml version="1.0" encoding="UTF-8"?>
<svg version="1.1" viewBox="0 0 264.6 310.97" xmlns="http://www.w3.org/2000/svg">
 <g transform="translate(-161.28 -120.51)">
  <g fill="#c1c1bf">
   <g transform="matrix(.53591 0 0 .52976 188.98 -25.291)">
    <path d="m329.34 727.55c-14.112-1.224-25.2-11.736-26.208-32.616 3.24-55.44 6.48-112.82-31.896-149.83-5.976-46.08-27.216-63-37.224-92.592l-15.768-11.304 18.864-29.52 8.064 0.216 78.768 159.26 16.488 80.28-11.088 76.104z"/>
   </g>
   <g transform="matrix(.53591 0 0 .52976 188.98 -25.291)">
    <path d="m136.23 439.7c-2.376 15.552-3.672 30.816-1.44 45.576-16.416 22.32-28.872 44.856-30.312 68.04-12.456 33.192-42.048 61.272-36.936 126.79 16.632 17.352 39.888 33.48 59.832 50.256 25.056 20.952 10.152 48.6-25.128 42.048-7.848-8.64-25.632-62.784-59.328-96.12l6.624-43.704 31.824-85.176 39.6-63.36 4.392-27.36-5.544-69.912 4.608-25.56 11.808 78.48z"/>
   </g>
  </g>
  <path d="m257.32 207.42c-10.943 41.661-35.009 78.99-39.967 99.82-4.9582 20.831 1.2396 60.041 13.635 80.871 12.396 20.831 76.853 29.408 91.728 17.155s75.614-110.28 48.343-131.11c-27.27-20.83-19.833-85.773-43.385-84.547-23.552 1.2254-69.115 21.487-70.354 17.811z" fill="#fff" fill-rule="evenodd"/>
  <g fill="#c1c1bf">
   <g transform="matrix(.53591 0 0 .52976 188.98 -25.291)">
    <path d="m115.64 341.42c0.936-5.04 2.16-9.792 3.672-14.256l2.376 15.624-6.048-1.368z"/>
   </g>
   <path d="m253.81 239.83c-6.7524 12.358-9.1062 24.258 6.4054 26.356-8.5275 1.9453-19.139 9.7644-29.865 22.924l0.2316-26.738 12.772-21.055 10.457-1.4875z"/>
   <g transform="matrix(.53591 0 0 .52976 188.98 -25.291)">
    <path d="m-33.256 818.49c43.776 19.656 74.664 18.576 102.53 32.472 22.032 11.592 44.28 10.224 57.672-3.816 11.376-14.688 19.8-15.408 36.576-16.92 27.432-1.656 54.216-1.944 78.408 0.57599l27.648 2.232c-0.504 31.032 58.464 34.848 75.816 11.304 20.952-24.912 49.752-36.072 74.448-54.144l-130.54-64.656c-33.48 80.928-158.26 102.1-175.54 37.728l-147.02 55.224z"/>
   </g>
  </g>
  <path d="m168.96 409.76c23.846 10.413 40.708 9.8026 55.911 17.202 12 6.1029 24.116 5.4163 31.447-2.0597 6.2124-7.7429 10.804-8.1242 19.949-8.9253 14.933-0.91541 29.557-1.0299 42.753 0.267l15.048 1.2206c-0.27008 16.439 31.91 18.423 41.364 5.9502 11.421-13.197 27.126-19.071 40.592-28.683l-71.191-34.214c-18.251 42.834-86.278 54.048-95.693 19.987l-80.181 29.255z"/>
  <path d="m393.87 341.29c11.421 3.6996 4.0515 14.99 9.8779 21.474 2.5082 5.4924 7.7944 10.337 16.63 14.837 14.778 7.3614-2.9712 20.559-20.913 27.31-21.878 7.1709-26.123 26.929-50.084 21.093-8.6818-2.8606-11.228-10.642-10.958-22.656 2.8939-24.564-0.5788-41.69-0.0385-58.434-0.0387-6.7131 2.5465-7.514 15.241-5.7596 1.5049 20.33 24.193 20.864 40.245 2.1362z" fill="#b7bd00"/>
  <path d="m370.99 412.62c17.132-6.5224 34.418-15.104 48.348-23.572 4.283-2.4793 4.8619-8.5822-1.1576-10.489-13.042-7.3233-20.142-16.478-18.637-28.378 0.2316-4.1575-4.9389-8.582-6.3281-4.6152-11.383 37.837-48.116 35.816-43.062-1.6401 0.2702-1.1061 0.54022-2.2123 0.8103-3.2802-6.5982-1.3351-9.1449 0.11429-8.8362 5.111l5.0933 56.26c1.2734 12.816 11.807 15.638 23.769 10.604z" fill="#f2dc00"/>
  <path d="m378.94 259.48c13.235 17.088 26.778 60.151 16.052 81.587-12.579 24.487-41.055 27.386-42.29 2.2505 1.775-29.751 3.4728-60.532-17.055-80.366-3.2025-24.754-14.624-33.832-19.987-49.7l-17.827-12.816-37.274 4.7678c-1.5047 9.0399-2.3923 17.851-1.0803 26.395-8.8362 11.9-15.512 23.915-16.283 36.235-6.6752 17.66-22.534 32.65-19.794 67.512 8.9133 9.2687 21.376 17.851 32.065 26.776 13.428 11.176 6.1352 23.839-12.772 20.33-11.46-12.511-23.306-24.792-34.804-37.265-12.27-8.6201-16.823-19.682-4.2446-36.464 8.6048-11.366 11.036-36.045 18.56-46 6.5983-9.8026 16.206-18.575 23.19-28.378 3.7042-6.4463 4.8619-11.405 4.283-18.881l-1.5821-45.199c-1.0417-32.803 17.209-50.272 42.599-49.738 28.785 0.267 52.4 19.72 52.708 54.582 2.4308 16.973-2.6239 26.7 10.997 50.958 13.852 25.555 16.013 24.182 24.54 33.413z"/>
  <g fill="#c1c1bf">
   <path d="m329.01 241.51 1.1962 4.539c-3.1255-5.5689-6.8682-15.142-11.576-19.338-1.4276-1.1443-3.2797-1.1062-4.3988-0.0382-6.2508 5.9884-21.762 18.27-34.187 16.668-9.5692-0.95369-18.907-7.3234-20.952-14.227-1.0804-4.9584-0.5788-9.0396 0.0772-13.197l58.805-0.9535c-1.1962 5.1111 6.6367 17.736 11.036 26.547z"/>
   <path d="m265.69 167.13c5.865 0 11.113 7.2088 11.074 17.164-0.0387 6.6748-4.4374 8.3912-7.7558 11.328-1.4663 1.335-1.8135 8.5438-3.6271 8.5438-5.8265 0-10.225-10.26-10.225-19.872 0-9.5739 4.7075-17.164 10.534-17.164z"/>
  </g>
  <path d="m266.35 173.39c5.2091 0 8.8362 2.5936 9.2607 8.6201 0.30872 4.1575-0.8103 10.832-3.7428 12.244-1.3506 0.6483-6.0195 6.484-7.6401 6.4078-6.5981-0.30519-8.2574-12.93-7.7557-18.957 0.4631-6.0265 4.7075-8.3149 9.8779-8.3149z" fill="#fff"/>
  <path d="m265 177.43c3.5884-0.3051 6.9068 3.7379 7.3699 9.0015 0.4631 5.2638-2.1223 9.8408-5.7107 10.146-3.5885 0.30501-6.9069-3.7381-7.3699-9.0399-0.46298-5.2636 2.1222-9.8027 5.7107-10.108z"/>
  <path d="m305.24 165.8c8.4504 0 15.357 8.849 15.357 19.643 0 10.832-6.9069 19.644-15.357 19.644-8.4502 0-15.28-8.811-15.28-19.644 0-10.794 6.8297-19.643 15.28-19.643z" fill="#c1c1bf"/>
  <path d="m309.45 173.35c5.8265 2.0597 9.1834 6.5987 9.6079 11.443 0.50171 5.5688-1.7749 11.862-6.6754 15.562-1.389 1.0299-17.441-5.2254-18.367-7.5903-1.3891-3.3947-2.238-9.917-1.1962-13.77 0.4245-1.5256 1.8521-3.7378 3.9744-4.9203 3.357-1.869 8.296-2.2504 12.656-0.72479z" fill="#fff"/>
  <path d="m305.2 176.52c4.6689 0 8.4889 4.4246 8.4889 9.8027 0 5.4162-3.82 9.8407-8.4889 9.8407-4.6689 0-8.4889-4.4245-8.4889-9.8407 0-5.3781 3.82-9.8027 8.4889-9.8027z"/>
  <path d="m277.38 188.99c3.9744-1.1443 10.264-0.76289 14.624 0.0763 4.3603 1.1443 15.975 7.2089 28.283 13.808 1.582 0.8009 2.0451 3.3945 0 4.2338-3.1641 0.22879 2.2766 7.9335-3.2797 10.68-8.3346 2.136-21.685 14.38-28.284 15.371-3.6656 0.80089-7.4471 0.9153-11.537 0-12.888-2.5938-16.283-17.088-22.341-20.025-1.6591-1.7165-0.81021-4.6916-0.27-5.302 0.656-3.0894 14.624-17.927 22.804-18.842z" fill="#e79a00"/>
  <path d="m288.34 189.71c6.9841 0.7628 21.801 9.5737 28.94 13.121 1.7749 0.9536 1.6592 3.8142 0.0771 4.2719-1.6978 0.95371-2.1994-0.22879-3.5499-0.4195-2.1608-1.1443-5.7107 1.602-8.5275 3.6998-16.244 12.129-19.486 10.794-32.605 9.4213-4.5532-1.1062-7.5243-2.4794-8.8361-3.5473 0.9646-5.3399 11.151-25.594 14.508-26.051 0.8489-1.1062 7.0612-1.1443 9.9936-0.4958z" fill="#f2de00"/>
  <path d="m291.16 192.99 1.6592 0.7248c1.2347 0.68649-0.27011 2.5174-1.6207 1.9451l-2.4308-0.8391c-1.4278-1.1824 0.27017-2.8606 2.3923-1.8308z" fill="#b77200"/>
  <path d="m344.06 285.6c-0.0772 1.2207-0.5401 1.4113-1.5821 0.267-3.5498-6.1028-27.512-19.033-39.164-20.482-2.1994-0.7627-2.0837-1.7547 0.0771-2.0597 8.4117 0 14.894-3.6617 22.225-3.6617 2.0066 0.0763 3.9358 0.83911 5.0548 1.9834 2.7397 1.7546 12.695 15.333 13.389 23.954z" fill="#c1c1bf"/>
  <path d="m216.69 337.29c12.849 12.396 21.261 31.162 33.724 48.136 18.135 21.589 3.6656 43.978-25.814 37.227-14.778-5.4926-36.039-4.8822-53.133-10.451-12-2.8989-12.425-8.7728-6.2895-20.254 2.1608-7.3233 2.3537-19.224 0.3472-29.141-1.0803-7.5141 2.431-11.71 10.534-12.587 6.8683-0.0766 16.438 2.6698 21.647-11.862 3.8972-6.942 13.235-7.1325 18.984-1.0679z" fill="#b7a400"/>
  <path d="m202.18 345.03c-0.4245-9.5736 7.8716-11.519 13.428-5.6831 9.9167 12.015 18.984 25.288 27.164 40.622 13.042 20.75 2.2766 41.156-17.402 33.413-9.7623-5.4163-33.107-7.8192-45.686-10.032-8.4117-0.68658-9.5308-6.1029-6.3281-9.1541 4.3987-4.9969 4.8618-16.974 0.6945-27.196-4.1287-6.3317 3.6271-13.312 9.7237-10.413 5.6335 3.2801 18.946-4.1196 18.405-11.557z" fill="#f2ec00"/>
 </g>
</svg>
